<svg width="212" height="236" viewBox="0 0 212 236" fill="none" xmlns="http://www.w3.org/2000/svg">
<rect width="212" height="236" fill="#9E21EB"/>
<path d="M196.477 75.2807C189.064 67.0294 179.621 61.4102 169.34 59.1337C159.059 56.8571 148.402 58.0255 138.718 62.4911C129.033 66.9567 120.756 74.5189 114.932 84.2214C109.108 93.9239 106 105.331 106 117C106 128.669 109.108 140.076 114.932 149.779C120.756 159.481 129.033 167.043 138.718 171.509C148.402 175.974 159.059 177.143 169.34 174.866C179.621 172.59 189.064 166.971 196.477 158.719L159 117L196.477 75.2807Z" fill="#FC0000"/>
<path d="M60.2763 31.1498C55.9286 40.189 53.7719 50.3334 54.0191 60.5831C54.2662 70.8328 56.9086 80.8338 61.6857 89.6003C66.4628 98.3668 73.2097 105.596 81.2613 110.575C89.3129 115.555 98.3912 118.113 107.601 117.996C116.811 117.88 125.835 115.094 133.783 109.912C141.731 104.731 148.329 97.3329 152.926 88.448C157.523 79.5632 159.961 69.498 160 59.2447C160.038 48.9914 157.675 38.904 153.144 29.977L107 59L60.2763 31.1498Z" fill="#3DFF17"/>
<path d="M23.3628 165.913C31.2399 171.828 40.4005 175.277 49.8856 175.898C59.3707 176.52 68.8315 174.291 77.2775 169.446C85.7236 164.601 92.8443 157.318 97.8943 148.358C102.944 139.399 105.738 129.093 105.982 118.519C106.227 107.945 103.914 97.4928 99.2847 88.2558C94.6557 79.0188 87.8811 71.337 79.6703 66.0144C71.4594 60.6919 62.1142 57.9243 52.613 58.0016C43.1117 58.0788 33.8038 60.998 25.6637 66.4535L53 117L23.3628 165.913Z" fill="black"/>
<path d="M155.79 200.045C159.194 191.113 160.567 181.385 159.787 171.721C159.008 162.057 156.099 152.757 151.319 144.644C146.539 136.53 140.035 129.854 132.384 125.207C124.733 120.56 116.17 118.085 107.455 118.002C98.7392 117.919 90.1397 120.23 82.418 124.73C74.6963 129.23 68.0907 135.781 63.1864 143.802C58.2821 151.822 55.2304 161.066 54.3017 170.713C53.373 180.361 54.5959 190.114 57.8622 199.11L107 177L155.79 200.045Z" fill="#0066FF"/>
<path d="M106 81L113.409 106.566H137.385L117.988 122.367L125.397 147.934L106 132.133L86.6031 147.934L94.012 122.367L74.6151 106.566H98.591L106 81Z" fill="white"/>
</svg>
